<svg class="icon" xmlns="http://www.w3.org/2000/svg" viewBox="0 0 179.1 145" >

    <path stroke-linecap="round" d="M94,139c-4.8,1.3-8.8,1.7-11.4,1.8c0,0-18.3,1.1-36.9-11.6c-1.9-1.3-4.7-3.2-7.8-6.2c-1.7-1.6-2.9-2.9-3.4-3.6
    c0,0-3.6-4.2-6.1-8.6c-4.6-8.4-5.4-18.9-5.5-21l0,0V75.5v-39c0-0.7,0.5-1.3,1.2-1.5l58-14.2c0.2-0.1,0.5-0.1,0.7,0l57.9,14.7
    c0.7,0.2,1.1,0.8,1.1,1.5v29.7"/>
    <path id="security-cir" stroke-linecap="round" d="M158.3,120.7c0,18.3-14.8,33.1-33.1,33.1s-33-14.8-33-33.1s14.8-33.1,33.1-33.1S158.3,102.4,158.3,120.7z"/>
    <g id="security-strok">
        <path stroke-linecap="round" d="M151.1,104.5l-25,25c-1.3,1.3-3.5,1.3-4.9,0l-9.1-9.1"/>
        <path stroke-linecap="round" d="M82.6,43L23.1,62.3"/>
        <path stroke-linecap="round" d="M82.6,68.4L23.1,87.6"/>
    </g>

</svg>